<svg width="430" height="932" viewBox="0 0 430 932" fill="none" xmlns="http://www.w3.org/2000/svg">
  <defs>
    <filter id="blur-md" x="-50%" y="-50%" width="200%" height="200%">
      <feGaussianBlur in="SourceGraphic" stdDeviation="4" />
    </filter>
    <filter id="blur-sm" x="-20%" y="-20%" width="140%" height="140%">
      <feGaussianBlur in="SourceGraphic" stdDeviation="2" />
    </filter>
  </defs>

  <!-- Device Frame (Square Corners) -->
  <rect x="0" y="0" width="430" height="932" rx="0" fill="#121212" />

  <!-- Header -->
  <text x="20" y="60" font-family="sans-serif" font-size="24" font-weight="bold" fill="#E2E8F0">Sources</text>

  <!-- Search Icon (Shifted x+30) -->
  <path
    d="M360 55C360 58.866 356.866 62 353 62C349.134 62 346 58.866 346 55C346 51.134 349.134 48 353 48C356.866 48 360 51.134 360 55Z"
    stroke="#E2E8F0" stroke-width="2" fill="none" />
  <path d="M364 66L358 60" stroke="#E2E8F0" stroke-width="2" stroke-linecap="round" />

  <!-- Refresh Icon (Shifted x+30) -->
  <path d="M412 51V56H407" stroke="#E2E8F0" stroke-width="2" stroke-linecap="round" stroke-linejoin="round" />
  <path d="M412 56C410 52 406 49 402 50C398 51 395 54 396 58C397 62 400 65 404 65C407 65 409 64 411 62" stroke="#E2E8F0"
    stroke-width="2" stroke-linecap="round" stroke-linejoin="round" />

  <!-- List Container -->
  <g transform="translate(0, 90)">

    <!-- Item 1: ecommerce-platform -->
    <g transform="translate(0, 0)">
      <rect x="0" y="0" width="430" height="70" fill="transparent" />
      <path d="M20 25H35L37 27H45V45H20V25Z" fill="#334155" stroke="#475569" stroke-width="2" /> <!-- Folder Icon -->

      <text x="60" y="25" font-family="sans-serif" font-size="16" font-weight="bold"
        fill="#E2E8F0">ecommerce-platform</text>
      <text x="60" y="45" font-family="sans-serif" font-size="14" fill="#94A3B8">ByteLandTechnology</text>

      <!-- Plus Icon (Shifted x+30) -->
      <circle cx="370" cy="35" r="10" stroke="#3B82F6" stroke-width="2" />
      <path d="M370 30V40M365 35H375" stroke="#3B82F6" stroke-width="2" />

      <!-- Chevron Down (Shifted x+30) -->
      <path d="M400 32L405 37L410 32" stroke="#94A3B8" stroke-width="2" stroke-linecap="round"
        stroke-linejoin="round" />

      <line x1="0" y1="70" x2="430" y2="70" stroke="#334155" stroke-width="1" />
    </g>

    <!-- Item 2: analytics-service -->
    <g transform="translate(0, 70)">
      <rect x="0" y="0" width="430" height="70" fill="transparent" />
      <path d="M20 25H35L37 27H45V45H20V25Z" fill="#334155" stroke="#475569" stroke-width="2" />

      <text x="60" y="25" font-family="sans-serif" font-size="16" font-weight="bold"
        fill="#E2E8F0">analytics-service</text>
      <text x="60" y="45" font-family="sans-serif" font-size="14" fill="#94A3B8">ByteLandTechnology</text>

      <circle cx="370" cy="35" r="10" stroke="#3B82F6" stroke-width="2" />
      <path d="M370 30V40M365 35H375" stroke="#3B82F6" stroke-width="2" />

      <path d="M400 32L405 37L410 32" stroke="#94A3B8" stroke-width="2" stroke-linecap="round"
        stroke-linejoin="round" />

      <line x1="0" y1="70" x2="430" y2="70" stroke="#334155" stroke-width="1" />
    </g>

    <!-- Item 3: mobile-client (Expanded) -->
    <g transform="translate(0, 140)">
      <!-- Repo Header -->
      <rect x="0" y="0" width="430" height="70" fill="transparent" />
      <path d="M20 25H35L37 27H45V45H20V25Z" fill="#334155" stroke="#475569" stroke-width="2" />

      <text x="60" y="25" font-family="sans-serif" font-size="16" font-weight="bold" fill="#E2E8F0">mobile-client</text>
      <text x="60" y="45" font-family="sans-serif" font-size="14" fill="#94A3B8">ByteLandTechnology</text>

      <circle cx="370" cy="35" r="10" stroke="#3B82F6" stroke-width="2" />
      <path d="M370 30V40M365 35H375" stroke="#3B82F6" stroke-width="2" />

      <!-- Chevron Up (Expanded) -->
      <path d="M400 37L405 32L410 37" stroke="#3B82F6" stroke-width="2" stroke-linecap="round"
        stroke-linejoin="round" />

      <!-- Branches List -->
      <g transform="translate(40, 70)">
        <!-- Branch 1: main -->
        <g transform="translate(0, 10)">
          <!-- Branch Icon: Y-shape with arrows -->
          <path d="M15 15V10C15 8 12 8 10 6M15 10C15 8 18 8 20 6" stroke="#E2E8F0" stroke-width="2"
            stroke-linecap="round" stroke-linejoin="round" />
          <path d="M8 8L10 6L12 8" stroke="#E2E8F0" stroke-width="2" stroke-linecap="round" stroke-linejoin="round" />
          <!-- Left Arrow -->
          <path d="M18 8L20 6L22 8" stroke="#E2E8F0" stroke-width="2" stroke-linecap="round" stroke-linejoin="round" />

          <text x="35" y="15" font-family="sans-serif" font-size="15" fill="#E2E8F0">main</text>

          <!-- Plus Icon Moved Left (x=350) -->
          <circle cx="350" cy="10" r="10" stroke="#3B82F6" stroke-width="2" />
          <path d="M350 5V15M345 10H355" stroke="#3B82F6" stroke-width="2" />
        </g>

        <!-- Branch 2: feature/user-auth -->
        <g transform="translate(0, 50)">
          <path d="M15 15V10C15 8 12 8 10 6M15 10C15 8 18 8 20 6" stroke="#E2E8F0" stroke-width="2"
            stroke-linecap="round" stroke-linejoin="round" />
          <path d="M8 8L10 6L12 8" stroke="#E2E8F0" stroke-width="2" stroke-linecap="round" stroke-linejoin="round" />
          <path d="M18 8L20 6L22 8" stroke="#E2E8F0" stroke-width="2" stroke-linecap="round" stroke-linejoin="round" />

          <text x="35" y="15" font-family="sans-serif" font-size="15" fill="#E2E8F0">feature/user-auth</text>

          <circle cx="350" cy="10" r="10" stroke="#3B82F6" stroke-width="2" />
          <path d="M350 5V15M345 10H355" stroke="#3B82F6" stroke-width="2" />
        </g>

        <!-- Branch 3: develop -->
        <g transform="translate(0, 90)">
          <path d="M15 15V10C15 8 12 8 10 6M15 10C15 8 18 8 20 6" stroke="#E2E8F0" stroke-width="2"
            stroke-linecap="round" stroke-linejoin="round" />
          <path d="M8 8L10 6L12 8" stroke="#E2E8F0" stroke-width="2" stroke-linecap="round" stroke-linejoin="round" />
          <path d="M18 8L20 6L22 8" stroke="#E2E8F0" stroke-width="2" stroke-linecap="round" stroke-linejoin="round" />

          <text x="35" y="15" font-family="sans-serif" font-size="15" fill="#E2E8F0">develop</text>

          <circle cx="350" cy="10" r="10" stroke="#3B82F6" stroke-width="2" />
          <path d="M350 5V15M345 10H355" stroke="#3B82F6" stroke-width="2" />
        </g>
      </g>

      <line x1="0" y1="190" x2="430" y2="190" stroke="#334155" stroke-width="1" />
    </g>

    <!-- Blurred Items Below -->
    <g filter="url(#blur-md)" opacity="0.3" transform="translate(0, 330)">
      <!-- Item 4 -->
      <g transform="translate(0, 0)">
        <path d="M20 25H35L37 27H45V45H20V25Z" fill="#334155" stroke="#475569" stroke-width="2" />
        <rect x="60" y="15" width="100" height="14" rx="2" fill="#E2E8F0" />
        <rect x="60" y="35" width="140" height="12" rx="2" fill="#94A3B8" />
        <circle cx="370" cy="35" r="10" stroke="#3B82F6" stroke-width="2" />
        <path d="M400 32L405 37L410 32" stroke="#94A3B8" stroke-width="2" />
        <line x1="0" y1="70" x2="430" y2="70" stroke="#334155" stroke-width="1" />
      </g>

      <!-- Item 5 -->
      <g transform="translate(0, 70)">
        <path d="M20 25H35L37 27H45V45H20V25Z" fill="#334155" stroke="#475569" stroke-width="2" />
        <rect x="60" y="15" width="120" height="14" rx="2" fill="#E2E8F0" />
        <rect x="60" y="35" width="140" height="12" rx="2" fill="#94A3B8" />
        <circle cx="370" cy="35" r="10" stroke="#3B82F6" stroke-width="2" />
        <path d="M400 32L405 37L410 32" stroke="#94A3B8" stroke-width="2" />
        <line x1="0" y1="70" x2="430" y2="70" stroke="#334155" stroke-width="1" />
      </g>

      <!-- Item 6 -->
      <g transform="translate(0, 140)">
        <path d="M20 25H35L37 27H45V45H20V25Z" fill="#334155" stroke="#475569" stroke-width="2" />
        <rect x="60" y="15" width="80" height="14" rx="2" fill="#E2E8F0" />
        <rect x="60" y="35" width="140" height="12" rx="2" fill="#94A3B8" />
        <circle cx="370" cy="35" r="10" stroke="#3B82F6" stroke-width="2" />
        <path d="M400 32L405 37L410 32" stroke="#94A3B8" stroke-width="2" />
        <line x1="0" y1="70" x2="430" y2="70" stroke="#334155" stroke-width="1" />
      </g>
    </g>
  </g>

  <!-- Bottom Navigation -->
  <rect x="0" y="872" width="430" height="60" fill="#121212" stroke-top="#333333" />

  <!-- Sessions (Updated Icon: Two overlapping bubbles) -->
  <g transform="translate(65, 887)">
    <!-- Back Bubble -->
    <path
      d="M6 4H14C14.55 4 15 4.45 15 5V11C15 11.55 14.55 12 14 12H8L6 14V12H6C5.45 12 5 11.55 5 11V5C5 4.45 5.45 4 6 4Z"
      fill="#6B7280" stroke="#6B7280" stroke-width="1.5" />
    <!-- Front Bubble -->
    <path
      d="M10 8H18C18.55 8 19 8.45 19 9V15C19 15.55 18.55 16 18 16H12L10 18V16H10C9.45 16 9 15.55 9 15V9C9 8.45 9.45 8 10 8Z"
      fill="#121212" stroke="#6B7280" stroke-width="1.5" />
    <text x="12" y="35" font-family="sans-serif" font-size="10" fill="#6B7280" text-anchor="middle">Sessions</text>
  </g>

  <!-- Sources (Active, Code Brackets Icon) -->
  <g transform="translate(215, 887)">
    <g transform="translate(-10, 0)">
      <path d="M14 6L18 10L14 14M6 6L2 10L6 14" stroke="#22C55E" stroke-width="2" stroke-linecap="round"
        stroke-linejoin="round" />
      <text x="10" y="35" font-family="sans-serif" font-size="10" fill="#22C55E" text-anchor="middle">Sources</text>
    </g>
  </g>

  <!-- Settings (Gear Icon) -->
  <g transform="translate(365, 887)">
    <g transform="translate(-10, 0)">
      <path d="M10 3V1M10 19V17M17 10H19M3 10H1M15 15L16.4 16.4M4.6 4.6L6 6M15 5L16.4 3.6M4.6 15.4L6 14"
        stroke="#6B7280" stroke-width="2" stroke-linecap="round" />
      <circle cx="10" cy="10" r="3" stroke="#6B7280" stroke-width="2" />
      <circle cx="10" cy="10" r="7" stroke="#6B7280" stroke-width="2" stroke-dasharray="1 3" />
      <text x="10" y="35" font-family="sans-serif" font-size="10" fill="#6B7280" text-anchor="middle">Settings</text>
    </g>
  </g>

</svg>