<svg width="430" height="932" viewBox="0 0 430 932" fill="none" xmlns="http://www.w3.org/2000/svg">
  <defs>
    <filter id="blur-md" x="-50%" y="-50%" width="200%" height="200%">
      <feGaussianBlur in="SourceGraphic" stdDeviation="4" />
    </filter>
    <filter id="blur-sm" x="-20%" y="-20%" width="140%" height="140%">
      <feGaussianBlur in="SourceGraphic" stdDeviation="2" />
    </filter>
  </defs>

  <!-- Device Frame (Square Corners) -->
  <rect x="0" y="0" width="430" height="932" rx="0" fill="#F8FAFC" />

  <!-- Header -->
  <text x="20" y="60" font-family="sans-serif" font-size="24" font-weight="bold" fill="#1E293B">Sessions</text>

  <!-- Search Icon (Shifted x+30) -->
  <path
    d="M360 55C360 58.866 356.866 62 353 62C349.134 62 346 58.866 346 55C346 51.134 349.134 48 353 48C356.866 48 360 51.134 360 55Z"
    stroke="#1E293B" stroke-width="2" fill="none" />
  <path d="M364 66L358 60" stroke="#1E293B" stroke-width="2" stroke-linecap="round" />

  <!-- Refresh Icon (Shifted x+30) -->
  <path d="M412 51V56H407" stroke="#1E293B" stroke-width="2" stroke-linecap="round" stroke-linejoin="round" />
  <path d="M412 56C410 52 406 49 402 50C398 51 395 54 396 58C397 62 400 65 404 65C407 65 409 64 411 62" stroke="#1E293B"
    stroke-width="2" stroke-linecap="round" stroke-linejoin="round" />

  <!-- List Container -->
  <g transform="translate(0, 90)">

    <!-- Item 1: Refactoring Authentication Flow (Unread) -->
    <g transform="translate(20, 0)">
      <circle cx="5" cy="15" r="4" fill="#3B82F6" /> <!-- Blue Dot -->
      <text x="20" y="20" font-family="sans-serif" font-size="16" font-weight="bold" fill="#1E293B">Refactoring
        Authentication Flow</text>

      <!-- Subtitle Row -->
      <g transform="translate(0, 35)">
        <circle cx="5" cy="5" r="6" fill="#22C55E" /> <!-- Green Check Bg -->
        <path d="M2 5L4 7L8 3" stroke="white" stroke-width="1.5" stroke-linecap="round" stroke-linejoin="round" />

        <path d="M20 2H24L26 4H32V9H20V2Z" stroke="#64748B" stroke-width="1.5" fill="none" /> <!-- Folder Icon -->

        <!-- Shimmer Branch -->
        <g filter="url(#blur-sm)" opacity="0.6">
          <rect x="40" y="0" width="100" height="10" rx="2" fill="#94A3B8" />
        </g>

        <!-- Shimmer Date -->
        <g filter="url(#blur-sm)" opacity="0.6">
          <rect x="280" y="0" width="80" height="10" rx="2" fill="#94A3B8" />
        </g>
      </g>
    </g>

    <!-- Item 2: Implementing Dark Mode (Unread) -->
    <g transform="translate(20, 80)">
      <circle cx="5" cy="15" r="4" fill="#3B82F6" />
      <text x="20" y="20" font-family="sans-serif" font-size="16" font-weight="bold" fill="#1E293B">Implementing Dark
        Mode</text>

      <g transform="translate(0, 35)">
        <circle cx="5" cy="5" r="6" fill="#22C55E" />
        <path d="M2 5L4 7L8 3" stroke="white" stroke-width="1.5" stroke-linecap="round" stroke-linejoin="round" />
        <path d="M20 2H24L26 4H32V9H20V2Z" stroke="#64748B" stroke-width="1.5" fill="none" />

        <g filter="url(#blur-sm)" opacity="0.6">
          <rect x="40" y="0" width="120" height="10" rx="2" fill="#94A3B8" />
        </g>
        <g filter="url(#blur-sm)" opacity="0.6">
          <rect x="280" y="0" width="80" height="10" rx="2" fill="#94A3B8" />
        </g>
      </g>
    </g>

    <!-- Item 3: Optimizing Database Queries (Read) -->
    <g transform="translate(20, 160)">
      <!-- Removed Blue Dot -->
      <!-- Shifted Text Left to x=0 -->
      <text x="0" y="20" font-family="sans-serif" font-size="16" font-weight="bold" fill="#1E293B">Optimizing Database
        Queries</text>

      <g transform="translate(0, 35)">
        <circle cx="5" cy="5" r="6" fill="#22C55E" />
        <path d="M2 5L4 7L8 3" stroke="white" stroke-width="1.5" stroke-linecap="round" stroke-linejoin="round" />
        <path d="M20 2H24L26 4H32V9H20V2Z" stroke="#64748B" stroke-width="1.5" fill="none" />

        <g filter="url(#blur-sm)" opacity="0.6">
          <rect x="40" y="0" width="90" height="10" rx="2" fill="#94A3B8" />
        </g>
        <g filter="url(#blur-sm)" opacity="0.6">
          <rect x="280" y="0" width="80" height="10" rx="2" fill="#94A3B8" />
        </g>
      </g>
    </g>

    <!-- Blurred Items Below (Read) -->
    <g filter="url(#blur-md)" opacity="0.3" transform="translate(20, 240)">
      <!-- Item 4 -->
      <!-- Removed Blue Dot -->
      <rect x="0" y="8" width="200" height="14" rx="2" fill="#94A3B8" />
      <g transform="translate(0, 35)">
        <circle cx="5" cy="5" r="6" fill="#22C55E" />
        <rect x="40" y="0" width="100" height="10" rx="2" fill="#94A3B8" />
        <rect x="280" y="0" width="80" height="10" rx="2" fill="#94A3B8" />
      </g>

      <!-- Item 5 -->
      <g transform="translate(0, 80)">
        <!-- Removed Blue Dot -->
        <rect x="0" y="8" width="180" height="14" rx="2" fill="#94A3B8" />
        <g transform="translate(0, 35)">
          <circle cx="5" cy="5" r="6" fill="#22C55E" />
          <rect x="40" y="0" width="110" height="10" rx="2" fill="#94A3B8" />
          <rect x="280" y="0" width="80" height="10" rx="2" fill="#94A3B8" />
        </g>
      </g>

      <!-- Item 6 -->
      <g transform="translate(0, 160)">
        <!-- Removed Blue Dot -->
        <rect x="0" y="8" width="220" height="14" rx="2" fill="#94A3B8" />
        <g transform="translate(0, 35)">
          <circle cx="5" cy="5" r="6" fill="#22C55E" />
          <rect x="40" y="0" width="90" height="10" rx="2" fill="#94A3B8" />
          <rect x="280" y="0" width="80" height="10" rx="2" fill="#94A3B8" />
        </g>
      </g>

      <!-- Item 7 -->
      <g transform="translate(0, 240)">
        <!-- Removed Blue Dot -->
        <rect x="0" y="8" width="160" height="14" rx="2" fill="#94A3B8" />
        <g transform="translate(0, 35)">
          <circle cx="5" cy="5" r="6" fill="#22C55E" />
          <rect x="40" y="0" width="100" height="10" rx="2" fill="#94A3B8" />
          <rect x="280" y="0" width="80" height="10" rx="2" fill="#94A3B8" />
        </g>
      </g>
    </g>
  </g>

  <!-- Bottom Navigation -->
  <rect x="0" y="872" width="430" height="60" fill="#F8FAFC" stroke-top="#E2E8F0" />

  <!-- Sessions (Active, Updated Icon) -->
  <g transform="translate(65, 887)">
    <!-- Back Bubble -->
    <path
      d="M6 4H14C14.55 4 15 4.45 15 5V11C15 11.55 14.55 12 14 12H8L6 14V12H6C5.45 12 5 11.55 5 11V5C5 4.45 5.45 4 6 4Z"
      fill="#22C55E" stroke="#22C55E" stroke-width="1.5" />
    <!-- Front Bubble -->
    <path
      d="M10 8H18C18.55 8 19 8.45 19 9V15C19 15.55 18.55 16 18 16H12L10 18V16H10C9.45 16 9 15.55 9 15V9C9 8.45 9.45 8 10 8Z"
      fill="#F8FAFC" stroke="#22C55E" stroke-width="1.5" />
    <text x="12" y="35" font-family="sans-serif" font-size="10" fill="#22C55E" text-anchor="middle">Sessions</text>
  </g>

  <!-- Sources (Code Brackets Icon) -->
  <g transform="translate(215, 887)">
    <g transform="translate(-10, 0)">
      <path d="M14 6L18 10L14 14M6 6L2 10L6 14" stroke="#64748B" stroke-width="2" stroke-linecap="round"
        stroke-linejoin="round" />
      <text x="10" y="35" font-family="sans-serif" font-size="10" fill="#64748B" text-anchor="middle">Sources</text>
    </g>
  </g>

  <!-- Settings (Gear Icon) -->
  <g transform="translate(365, 887)">
    <g transform="translate(-10, 0)">
      <path d="M10 3V1M10 19V17M17 10H19M3 10H1M15 15L16.4 16.4M4.6 4.6L6 6M15 5L16.4 3.6M4.6 15.4L6 14"
        stroke="#64748B" stroke-width="2" stroke-linecap="round" />
      <circle cx="10" cy="10" r="3" stroke="#64748B" stroke-width="2" />
      <circle cx="10" cy="10" r="7" stroke="#64748B" stroke-width="2" stroke-dasharray="1 3" />
      <text x="10" y="35" font-family="sans-serif" font-size="10" fill="#64748B" text-anchor="middle">Settings</text>
    </g>
  </g>

</svg>