<svg width="430" height="932" viewBox="0 0 430 932" fill="none" xmlns="http://www.w3.org/2000/svg">
  <defs>
    <filter id="blur-code" x="-20%" y="-20%" width="140%" height="140%">
      <feGaussianBlur in="SourceGraphic" stdDeviation="3" />
    </filter>
  </defs>

  <!-- Device Frame (Square Corners) -->
  <rect x="0" y="0" width="430" height="932" rx="0" fill="#121212" />

  <!-- Header (Dark) -->
  <g transform="translate(0, 40)">
    <rect x="0" y="0" width="430" height="60" fill="#121212" />
    <!-- Back Arrow -->
    <path d="M20 30H40M20 30L30 20M20 30L30 40" stroke="#E2E8F0" stroke-width="2" stroke-linecap="round"
      stroke-linejoin="round" />
    <!-- Title -->
    <text x="215" y="35" font-family="monospace" font-size="18" fill="#E2E8F0" text-anchor="middle">lib/main.dart</text>
    <!-- Menu Icon (Shifted x+30) -->
    <path d="M390 25H410M390 35H410M390 30H410" stroke="#E2E8F0" stroke-width="2" stroke-linecap="round" />
  </g>

  <!-- Code Content -->
  <g transform="translate(0, 100)">
    <rect x="0" y="0" width="430" height="832" fill="#FFFFFF" />

    <!-- Metadata (5 lines) -->
    <g transform="translate(10, 20)">
      <text x="0" y="0" font-family="monospace" font-size="12" fill="#4B5563">diff --git a/lib/main.dart
        b/lib/main.dart</text>
      <text x="0" y="15" font-family="monospace" font-size="12" fill="#4B5563">index 244a702..7920e3b 100644</text>
      <text x="0" y="30" font-family="monospace" font-size="12" fill="#9CA3AF">--- a/lib/main.dart</text>
      <text x="0" y="45" font-family="monospace" font-size="12" fill="#9CA3AF">+++ b/lib/main.dart</text>
      <text x="0" y="60" font-family="monospace" font-size="12" fill="#6B7280">@@ -1,122 +1,53 @@</text>
    </g>

    <!-- Visible Code Lines (5 lines) -->
    <g transform="translate(0, 90)">
      <!-- Line 1: Added -->
      <rect x="0" y="0" width="430" height="18" fill="#DCFCE7" />
      <text x="10" y="13" font-family="monospace" font-size="12" fill="#166534">+// lib/main.dart</text>

      <!-- Line 2: Context -->
      <text x="10" y="31" font-family="monospace" font-size="12" fill="#1F2937"> import
        'package:flutter/material.dart';</text>

      <!-- Lines 3-5: Added Block -->
      <rect x="0" y="36" width="430" height="54" fill="#DCFCE7" />
      <text x="10" y="49" font-family="monospace" font-size="12" fill="#166534">+import
        'package:flutter_riverpod/flutter_riverpod...</text>
      <text x="10" y="67" font-family="monospace" font-size="12" fill="#166534">+import
        'package:scaffold/features/hero/hero_ser...</text>
      <text x="10" y="85" font-family="monospace" font-size="12" fill="#166534">+import
        'package:scaffold/features/match/matches_...</text>
    </g>

    <!-- Blurred/Shimmer Code Lines (Moved down to y=200 to avoid overlap) -->
    <g transform="translate(0, 200)" filter="url(#blur-code)" opacity="0.5">
      <!-- Simulated Context Lines -->
      <rect x="10" y="0" width="100" height="10" rx="2" fill="#9CA3AF" />
      <rect x="10" y="18" width="150" height="10" rx="2" fill="#9CA3AF" />

      <!-- Simulated Removed Block (Red) -->
      <rect x="0" y="36" width="430" height="18" fill="#FEE2E2" />
      <rect x="10" y="40" width="200" height="10" rx="2" fill="#EF4444" />

      <!-- Simulated Added Block (Green) -->
      <rect x="0" y="54" width="430" height="90" fill="#DCFCE7" />
      <rect x="10" y="58" width="180" height="10" rx="2" fill="#166534" />
      <rect x="10" y="76" width="250" height="10" rx="2" fill="#166534" />
      <rect x="10" y="94" width="220" height="10" rx="2" fill="#166534" />
      <rect x="10" y="112" width="160" height="10" rx="2" fill="#166534" />
      <rect x="10" y="130" width="40" height="10" rx="2" fill="#166534" />

      <!-- More Context -->
      <rect x="10" y="150" width="20" height="10" rx="2" fill="#9CA3AF" />
      <rect x="10" y="168" width="300" height="10" rx="2" fill="#9CA3AF" />
      <rect x="10" y="186" width="250" height="10" rx="2" fill="#9CA3AF" />

      <!-- More Removed -->
      <rect x="0" y="204" width="430" height="18" fill="#FEE2E2" />
      <rect x="10" y="208" width="350" height="10" rx="2" fill="#EF4444" />

      <!-- More Context -->
      <rect x="10" y="226" width="100" height="10" rx="2" fill="#9CA3AF" />
      <rect x="10" y="244" width="280" height="10" rx="2" fill="#9CA3AF" />
      <rect x="10" y="262" width="200" height="10" rx="2" fill="#9CA3AF" />

      <!-- Large Removed Block -->
      <rect x="0" y="280" width="430" height="180" fill="#FEE2E2" />
      <!-- Ensure red bars for all lines in the block -->
      <rect x="10" y="284" width="200" height="10" rx="2" fill="#EF4444" />
      <rect x="10" y="302" width="180" height="10" rx="2" fill="#EF4444" />
      <rect x="10" y="320" width="300" height="10" rx="2" fill="#EF4444" />
      <rect x="10" y="338" width="250" height="10" rx="2" fill="#EF4444" />
      <rect x="10" y="356" width="320" height="10" rx="2" fill="#EF4444" />
      <rect x="10" y="374" width="280" height="10" rx="2" fill="#EF4444" />
      <rect x="10" y="392" width="150" height="10" rx="2" fill="#EF4444" />
      <rect x="10" y="410" width="220" height="10" rx="2" fill="#EF4444" />
      <rect x="10" y="428" width="190" height="10" rx="2" fill="#EF4444" />
      <rect x="10" y="446" width="260" height="10" rx="2" fill="#EF4444" />

      <!-- Added Bottom -->
      <rect x="0" y="470" width="430" height="36" fill="#DCFCE7" />
      <rect x="10" y="474" width="220" height="10" rx="2" fill="#166534" />
      <rect x="10" y="492" width="260" height="10" rx="2" fill="#166534" />
    </g>
  </g>
</svg>